<svg width="18" height="18" viewBox="0 0 18 18" fill="none" xmlns="http://www.w3.org/2000/svg">
<path d="M15.3652 12.8549L12.3165 10.0829C12.1724 9.95195 11.983 9.88209 11.7884 9.88811C11.5937 9.89413 11.409 9.97555 11.2732 10.1152L9.4785 11.9609C9.0465 11.8784 8.178 11.6077 7.284 10.7159C6.39 9.82119 6.11925 8.95044 6.039 8.52144L7.88325 6.72594C8.02306 6.59028 8.1046 6.40555 8.11062 6.21084C8.11664 6.01613 8.04666 5.82672 7.9155 5.68269L5.14425 2.63469C5.01303 2.4902 4.83066 2.40256 4.63586 2.39038C4.44107 2.3782 4.2492 2.44243 4.101 2.56944L2.4735 3.96519C2.34383 4.09532 2.26644 4.26852 2.256 4.45193C2.24475 4.63943 2.03025 9.08094 5.47425 12.5264C8.47875 15.5302 12.2422 15.7499 13.2787 15.7499C13.4302 15.7499 13.5232 15.7454 13.548 15.7439C13.7314 15.7337 13.9045 15.6559 14.034 15.5257L15.429 13.8974C15.5565 13.7497 15.6212 13.558 15.6093 13.3632C15.5974 13.1684 15.5098 12.986 15.3652 12.8549Z" fill="#CCCCCC"/>
</svg>
