<svg width="18" height="18" viewBox="0 0 18 18" fill="none" xmlns="http://www.w3.org/2000/svg">
<path d="M9 1.44653C10.6623 1.44653 12.2566 2.10689 13.432 3.28235C14.6075 4.4578 15.2679 6.05205 15.2679 7.71439C15.2679 10.363 13.4068 13.2494 9.73286 16.4045C9.52858 16.58 9.26811 16.6764 8.9988 16.6762C8.72949 16.6759 8.4692 16.5791 8.26522 16.4032L8.02222 16.1924C4.51093 13.1195 2.73215 10.3038 2.73215 7.71439C2.73215 6.05205 3.39251 4.4578 4.56796 3.28235C5.74341 2.10689 7.33767 1.44653 9 1.44653ZM9 5.30368C8.36064 5.30368 7.74747 5.55766 7.29537 6.00976C6.84328 6.46185 6.58929 7.07503 6.58929 7.71439C6.58929 8.35375 6.84328 8.96693 7.29537 9.41902C7.74747 9.87112 8.36064 10.1251 9 10.1251C9.63937 10.1251 10.2525 9.87112 10.7046 9.41902C11.1567 8.96693 11.4107 8.35375 11.4107 7.71439C11.4107 7.07503 11.1567 6.46185 10.7046 6.00976C10.2525 5.55766 9.63937 5.30368 9 5.30368Z" fill="#CCCCCC"/>
</svg>
