<svg width="32" height="32" viewBox="0 0 32 32" fill="none" xmlns="http://www.w3.org/2000/svg">
<path fill-rule="evenodd" clip-rule="evenodd" d="M3.19995 12.8C3.19995 12.3757 3.36852 11.9687 3.66858 11.6687C3.96864 11.3686 4.3756 11.2 4.79995 11.2H21.2928C21.7171 11.2 22.1241 11.3686 22.4241 11.6687C22.7242 11.9687 22.8928 12.3757 22.8928 12.8C22.8928 13.2244 22.7242 13.6314 22.4241 13.9314C22.1241 14.2315 21.7171 14.4 21.2928 14.4H4.79995C4.3756 14.4 3.96864 14.2315 3.66858 13.9314C3.36852 13.6314 3.19995 13.2244 3.19995 12.8ZM3.19995 6.40005C3.19995 5.9757 3.36852 5.56874 3.66858 5.26868C3.96864 4.96862 4.3756 4.80005 4.79995 4.80005H27.2C27.6243 4.80005 28.0313 4.96862 28.3313 5.26868C28.6314 5.56874 28.8 5.9757 28.8 6.40005C28.8 6.8244 28.6314 7.23136 28.3313 7.53142C28.0313 7.83148 27.6243 8.00005 27.2 8.00005H4.79995C4.3756 8.00005 3.96864 7.83148 3.66858 7.53142C3.36852 7.23136 3.19995 6.8244 3.19995 6.40005ZM3.19995 19.2C3.19995 18.7757 3.36852 18.3687 3.66858 18.0687C3.96864 17.7686 4.3756 17.6 4.79995 17.6H27.2C27.6243 17.6 28.0313 17.7686 28.3313 18.0687C28.6314 18.3687 28.8 18.7757 28.8 19.2C28.8 19.6244 28.6314 20.0314 28.3313 20.3314C28.0313 20.6315 27.6243 20.8 27.2 20.8H4.79995C4.3756 20.8 3.96864 20.6315 3.66858 20.3314C3.36852 20.0314 3.19995 19.6244 3.19995 19.2ZM3.19995 25.6C3.19995 25.1757 3.36852 24.7687 3.66858 24.4687C3.96864 24.1686 4.3756 24 4.79995 24H21.2928C21.7171 24 22.1241 24.1686 22.4241 24.4687C22.7242 24.7687 22.8928 25.1757 22.8928 25.6C22.8928 26.0244 22.7242 26.4314 22.4241 26.7314C22.1241 27.0315 21.7171 27.2 21.2928 27.2H4.79995C4.3756 27.2 3.96864 27.0315 3.66858 26.7314C3.36852 26.4314 3.19995 26.0244 3.19995 25.6Z" fill="#324894"/>
</svg>
