<svg width="13" height="13" viewBox="0 0 13 13" fill="none" xmlns="http://www.w3.org/2000/svg">
<path d="M1.42371 7.21191C1.15849 7.21191 0.904136 7.10656 0.716599 6.91902C0.529063 6.73148 0.423706 6.47713 0.423706 6.21191C0.423706 5.9467 0.529063 5.69234 0.716599 5.50481C0.904136 5.31727 1.15849 5.21191 1.42371 5.21191H11.4237C11.6889 5.21191 11.9433 5.31727 12.1308 5.50481C12.3183 5.69234 12.4237 5.9467 12.4237 6.21191C12.4237 6.47713 12.3183 6.73148 12.1308 6.91902C11.9433 7.10656 11.6889 7.21191 11.4237 7.21191H1.42371Z" fill="#2E2E2E"/>
<path d="M5.42371 1.21191C5.42371 0.946698 5.52906 0.692344 5.7166 0.504807C5.90414 0.317271 6.15849 0.211914 6.42371 0.211914C6.68892 0.211914 6.94328 0.317271 7.13081 0.504807C7.31835 0.692344 7.42371 0.946698 7.42371 1.21191V11.2119C7.42371 11.4771 7.31835 11.7315 7.13081 11.919C6.94328 12.1066 6.68892 12.2119 6.42371 12.2119C6.15849 12.2119 5.90414 12.1066 5.7166 11.919C5.52906 11.7315 5.42371 11.4771 5.42371 11.2119V1.21191Z" fill="#2E2E2E"/>
</svg>
