<svg width="80" height="34" viewBox="0 0 80 34" fill="none" xmlns="http://www.w3.org/2000/svg">
<path d="M40 34C36.5522 34 33.2456 32.7168 30.8076 30.4328C28.3696 28.1488 27 25.051 27 21.8209C27 13.7015 40 2.27299e-06 40 2.27299e-06C40 2.27299e-06 53 13.7015 53 21.8209C53 25.051 51.6304 28.1488 49.1924 30.4328C46.7544 32.7168 43.4478 34 40 34Z" fill="#EDEDED"/>
<path d="M9.5 30C6.98044 30 4.56408 29.0188 2.78248 27.2722C1.00089 25.5255 -3.34945e-06 23.1566 -2.91757e-06 20.6866C-1.83196e-06 14.4776 9.5 4 9.5 4C9.5 4 19 14.4776 19 20.6866C19 23.1566 17.9991 25.5256 16.2175 27.2722C14.4359 29.0188 12.0196 30 9.5 30Z" fill="#EDEDED"/>
<path d="M70.5 30C67.9804 30 65.5641 29.0188 63.7825 27.2722C62.0009 25.5255 61 23.1566 61 20.6866C61 14.4776 70.5 4 70.5 4C70.5 4 80 14.4776 80 20.6866C80 23.1566 78.9991 25.5256 77.2175 27.2722C75.4359 29.0188 73.0196 30 70.5 30Z" fill="#EDEDED"/>
</svg>
