<svg width="22" height="22" viewBox="0 0 22 22" fill="none" xmlns="http://www.w3.org/2000/svg">
<path d="M8.5527 0.870728C10.5901 0.870728 12.544 1.68008 13.9847 3.12072C15.4253 4.56137 16.2347 6.51531 16.2347 8.5527C16.2347 10.4555 15.5374 12.2046 14.391 13.5519L14.7101 13.871H15.6437L21.553 19.7802L19.7802 21.553L13.871 15.6437V14.7101L13.5519 14.391C12.158 15.5808 10.3854 16.2346 8.5527 16.2347C6.51531 16.2347 4.56137 15.4253 3.12072 13.9847C1.68008 12.544 0.870728 10.5901 0.870728 8.5527C0.870728 6.51531 1.68008 4.56137 3.12072 3.12072C4.56137 1.68008 6.51531 0.870728 8.5527 0.870728ZM8.5527 3.23441C5.59809 3.23441 3.23441 5.59809 3.23441 8.5527C3.23441 11.5073 5.59809 13.871 8.5527 13.871C11.5073 13.871 13.871 11.5073 13.871 8.5527C13.871 5.59809 11.5073 3.23441 8.5527 3.23441Z" fill="#324894"/>
</svg>
