<svg width="32" height="32" viewBox="0 0 32 32" fill="none" xmlns="http://www.w3.org/2000/svg">
<path d="M18.4948 16L25.478 9.01684C25.8094 8.68601 25.9958 8.23707 25.9962 7.76879C25.9967 7.3005 25.811 6.85123 25.4802 6.51981C25.1494 6.18839 24.7004 6.00197 24.2321 6.00156C23.7638 6.00115 23.3146 6.18677 22.9832 6.51761L16 13.5008L9.01684 6.51761C8.68542 6.18619 8.23592 6 7.76723 6C7.29853 6 6.84903 6.18619 6.51761 6.51761C6.18619 6.84903 6 7.29853 6 7.76723C6 8.23592 6.18619 8.68542 6.51761 9.01684L13.5008 16L6.51761 22.9832C6.18619 23.3146 6 23.7641 6 24.2328C6 24.7015 6.18619 25.151 6.51761 25.4824C6.84903 25.8138 7.29853 26 7.76723 26C8.23592 26 8.68542 25.8138 9.01684 25.4824L16 18.4992L22.9832 25.4824C23.3146 25.8138 23.7641 26 24.2328 26C24.7015 26 25.151 25.8138 25.4824 25.4824C25.8138 25.151 26 24.7015 26 24.2328C26 23.7641 25.8138 23.3146 25.4824 22.9832L18.4948 16Z" fill="#324894"/>
</svg>
