<svg width="18" height="18" viewBox="0 0 18 18" fill="none" xmlns="http://www.w3.org/2000/svg">
<g clip-path="url(#clip0_301_1243)">
<path d="M16.5 5.65137V12.7501C16.5 13.324 16.2808 13.8763 15.887 14.2938C15.4933 14.7114 14.9549 14.9627 14.382 14.9964L14.25 15.0001H3.75C3.17609 15.0001 2.62386 14.7809 2.2063 14.3872C1.78874 13.9934 1.53742 13.455 1.50375 12.8821L1.5 12.7501V5.65137L8.58375 10.3741L8.67075 10.4236C8.77328 10.4737 8.88589 10.4998 9 10.4998C9.11411 10.4998 9.22672 10.4737 9.32925 10.4236L9.41625 10.3741L16.5 5.65137Z" fill="#CCCCCC"/>
<path d="M14.25 3C15.06 3 15.7702 3.4275 16.1662 4.07025L8.99999 8.84775L1.83374 4.07025C2.02179 3.76483 2.28015 3.5088 2.58727 3.32354C2.89439 3.13827 3.24136 3.02914 3.59924 3.00525L3.74999 3H14.25Z" fill="#CCCCCC"/>
</g>
<defs>
<clipPath id="clip0_301_1243">
<rect width="18" height="18" fill="white"/>
</clipPath>
</defs>
</svg>
